<svg width="24" height="24" viewBox="0 0 24 24" fill="none" xmlns="http://www.w3.org/2000/svg">
<path d="M11.708 14.17C11.79 14.2567 11.8863 14.3 11.997 14.3C12.107 14.3 12.2053 14.2567 12.292 14.17L14.386 12.075C14.5107 11.9503 14.5407 11.8043 14.476 11.637C14.4113 11.469 14.2887 11.385 14.108 11.385H9.883C9.707 11.385 9.587 11.469 9.523 11.637C9.459 11.8043 9.489 11.9503 9.613 12.075L11.708 14.17ZM12.003 21C10.759 21 9.589 20.764 8.493 20.292C7.39767 19.8193 6.44467 19.178 5.634 18.368C4.82333 17.5587 4.18167 16.6067 3.709 15.512C3.23633 14.4173 3 13.2477 3 12.003C3 10.759 3.236 9.589 3.708 8.493C4.18067 7.39767 4.822 6.44467 5.632 5.634C6.44133 4.82333 7.39333 4.18167 8.488 3.709C9.58267 3.23633 10.7523 3 11.997 3C13.241 3 14.411 3.236 15.507 3.708C16.6023 4.18067 17.5553 4.822 18.366 5.632C19.1767 6.44133 19.8183 7.39333 20.291 8.488C20.7637 9.58267 21 10.7523 21 11.997C21 13.241 20.764 14.411 20.292 15.507C19.8193 16.6023 19.178 17.5553 18.368 18.366C17.5587 19.1767 16.6067 19.8183 15.512 20.291C14.4173 20.7637 13.2477 21 12.003 21Z" fill="#2E3788"/>
</svg>
